<?xml version="1.0" encoding="UTF-8"?>
<svg xmlns="http://www.w3.org/2000/svg" viewBox="0 0 100 100" width="100" height="100">
  <defs>
    <radialGradient id="bg" cx="50%" cy="40%" r="60%">
      <stop offset="0%" stop-color="#D4A024"/>
      <stop offset="100%" stop-color="#A87E15"/>
    </radialGradient>
  </defs>
  <rect width="100" height="100" rx="20" fill="url(#bg)"/>
  <g transform="translate(50 50)">
    <ellipse cx="0" cy="6" rx="22" ry="28" fill="#7A3812"/>
    <path d="M -18 -16 Q -16 6 -18 28" fill="none" stroke="#5A2A0E" stroke-width="2" stroke-linecap="round"/>
    <path d="M -8 -22 Q -6 6 -8 32" fill="none" stroke="#5A2A0E" stroke-width="2" stroke-linecap="round"/>
    <path d="M 0 -24 Q 0 6 0 32" fill="none" stroke="#5A2A0E" stroke-width="2" stroke-linecap="round"/>
    <path d="M 8 -22 Q 6 6 8 32" fill="none" stroke="#5A2A0E" stroke-width="2" stroke-linecap="round"/>
    <path d="M 18 -16 Q 16 6 18 28" fill="none" stroke="#5A2A0E" stroke-width="2" stroke-linecap="round"/>
    <ellipse cx="-8" cy="-8" rx="6" ry="10" fill="#D4A024" opacity="0.4"/>
    <path d="M 0 -22 L 0 -30" stroke="#1F4A2E" stroke-width="3" stroke-linecap="round"/>
    <path d="M 0 -30 Q -10 -34 -14 -28 Q -8 -26 0 -30 Z" fill="#1F4A2E"/>
    <path d="M 0 -30 Q 10 -34 14 -28 Q 8 -26 0 -30 Z" fill="#2D6B3E"/>
  </g>
</svg>
